<?xml version="1.0" encoding="utf-8"?>
<!-- Generator: Adobe Illustrator 18.0.0, SVG Export Plug-In . SVG Version: 6.00 Build 0)  -->
<!DOCTYPE svg PUBLIC "-//W3C//DTD SVG 1.1//EN" "http://www.w3.org/Graphics/SVG/1.1/DTD/svg11.dtd">
<svg version="1.1"
	 id="svg2" sodipodi:docname="Р СњР С•Р Р†Р С‘Р в„– Р Т‘Р С•Р С”РЎС“Р СР ВµР Р…РЎвЂљ 1" inkscape:version="0.48.2 r9819" xmlns:inkscape="http://www.inkscape.org/namespaces/inkscape" xmlns:rdf="http://www.w3.org/1999/02/22-rdf-syntax-ns#" xmlns:cc="http://creativecommons.org/ns#" xmlns:sodipodi="http://sodipodi.sourceforge.net/DTD/sodipodi-0.dtd" xmlns:dc="http://purl.org/dc/elements/1.1/" xmlns:svg="http://www.w3.org/2000/svg"
	 xmlns="http://www.w3.org/2000/svg" xmlns:xlink="http://www.w3.org/1999/xlink" x="0px" y="0px" viewBox="0 0 241.9 60"
	 enable-background="new 0 0 241.9 60" xml:space="preserve">
<g id="Layer_9">
</g>
<g id="Layer_10">
</g>
<g id="Layer_11">
</g>
<g id="Layer_11_copy">
</g>
<g id="Layer_8_copy">
</g>
<g id="Layer_18">
</g>
<g id="Layer_19">
</g>
<g id="Layer_13">
</g>
<g id="Layer_15">
</g>
<g id="Layer_25">
</g>
<g id="Layer_26">
</g>
<g id="Layer_27">
</g>
<g id="Layer_28">
</g>
<g id="Layer_29">
</g>
<g id="Layer_30">
</g>
<g id="Layer_31">
</g>
<g id="Layer_32">
</g>
<g id="Layer_33">
</g>
<g id="Layer_34">
</g>
<g id="Layer_36">
</g>
<g id="Layer_35">
</g>
<g>
	<g id="g4210">
		<path id="path4212" inkscape:connector-curvature="0" fill="none" d="M15,36.5L6,51.1c-0.5,0.8-0.1,1.5,0.8,1.5h10.5
			c1,0,2.2-0.7,2.7-1.5l4.8-7.7L15,36.5L15,36.5z"/>
		<path id="path4214" inkscape:connector-curvature="0" fill="none" d="M28,22.6L20,9.7c-0.5-0.8-1.7-1.5-2.7-1.5H6.8
			c-1,0-1.3,0.7-0.8,1.5l10.2,16.7l5.7-8.1L28,22.6L28,22.6z"/>
	</g>
	
		<linearGradient id="path4221_1_" gradientUnits="userSpaceOnUse" x1="2218.7815" y1="-39.263" x2="2230.2637" y2="-46.4377" gradientTransform="matrix(1 0 0 -1 -2207.8184 0.8574)">
		<stop  offset="0.54" style="stop-color:#0A985C"/>
		<stop  offset="0.54" style="stop-color:#F6C25B"/>
	</linearGradient>
	<path id="path4221" inkscape:connector-curvature="0" fill="url(#path4221_1_)" d="M24.2,40.3c-0.9-1.5-3-5.2-4.6-8.1l-1.8-3.1
		c0.4,0.8,0.4,2.1-0.1,2.8L6,51.1c-0.5,0.8-0.1,1.5,0.8,1.5h10.5c1,0,2.2-0.7,2.7-1.5l4.8-7.7C24.7,43.6,25.4,42.2,24.2,40.3
		L24.2,40.3z"/>
	<g id="g4223">
		<path id="path4225" inkscape:connector-curvature="0" fill="none" d="M15,36.5L6,51.1c-0.5,0.8-0.1,1.5,0.8,1.5h10.5
			c1,0,2.2-0.7,2.7-1.5l4.8-7.7L15,36.5L15,36.5z"/>
		<path id="path4227" inkscape:connector-curvature="0" fill="none" d="M28,22.6L20,9.7c-0.5-0.8-1.7-1.5-2.7-1.5H6.8
			c-1,0-1.3,0.7-0.8,1.5l10.2,16.7l5.8-8.1L28,22.6L28,22.6z"/>
		<path id="path4229" inkscape:connector-curvature="0" opacity="9.000000e-02" fill="#010101" enable-background="new    " d="
			M32,31.9c0.5-0.8,0.5-2.2,0-3L28,22.6L22,18.3l-5.8,8.1l1.6,2.6c0.5,0.8,0.5,2.2,0,3L15,36.5l9.8,7L32,31.9L32,31.9z"/>
	</g>
	
		<linearGradient id="path4236_1_" gradientUnits="userSpaceOnUse" x1="2222.0952" y1="-25.7802" x2="2233.8694" y2="-18.4229" gradientTransform="matrix(1 0 0 -1 -2207.8184 0.8574)">
		<stop  offset="0.57" style="stop-color:#5586C5"/>
		<stop  offset="0.57" style="stop-color:#D9423E"/>
	</linearGradient>
	<path id="path4236" inkscape:connector-curvature="0" fill="url(#path4236_1_)" d="M32,28.9L20,9.7c-0.5-0.8-1.7-1.5-2.7-1.5H6.8
		c-1,0-1.3,0.7-0.8,1.5l11.8,19.2l1.9,3.3c1.6,2.8,3.7,6.6,4.6,8.1c1.3,2.2,0.2,3.8,0.7,3l7-11.3C32.5,31.1,32.5,29.7,32,28.9z
		 M17.8,28.9C17.8,29,17.8,29,17.8,28.9L17.8,28.9C17.8,29,17.8,29,17.8,28.9C17.8,29,17.8,29,17.8,28.9z M18.6,30.4
		c0,0.1,0.1,0.1,0.1,0.2C18.7,30.5,18.7,30.5,18.6,30.4z M18.6,30.4c0.1,0.1,0.1,0.2,0.2,0.4C18.8,30.6,18.7,30.5,18.6,30.4z">
		
			<namedview  zoom="0.0875" showgrid="false" document-units="px" guide-bbox="true" pageshadow="2" window-y="-4" cx="1267.4286" pageopacity="0.0" cy="885.96512" window-x="-4" pagecolor="#ffffff" showguides="true" window-height="712" window-width="1280" current-layer="layer1" borderopacity="1.0" bordercolor="#666666">
			<guide  orientation="0,1" position="-3095.1074,2723.3713" id="guide5732"></guide>
		</namedview>
	</path>
	<g enable-background="new    ">
		<path fill="#4E4E4E" d="M57,27.5h10.4v13c-2.8,1-5.9,1.5-9.3,1.5c-3.7,0-6.6-1.1-8.6-3.2c-2-2.2-3-5.2-3-9.2
			c0-3.9,1.1-6.9,3.3-9.1c2.2-2.2,5.3-3.3,9.4-3.3c1.5,0,3,0.1,4.3,0.4s2.5,0.6,3.5,1.1l-2.1,5.1c-1.7-0.9-3.7-1.3-5.7-1.3
			c-1.9,0-3.4,0.6-4.4,1.9c-1,1.2-1.6,3-1.6,5.3c0,2.3,0.5,4,1.4,5.2c0.9,1.2,2.3,1.8,4.1,1.8c1,0,1.9-0.1,2.7-0.3v-3.8H57L57,27.5
			L57,27.5z"/>
		<path fill="#4E4E4E" d="M90.9,29c0,4-1.1,7.1-3.3,9.3c-2.2,2.2-5.3,3.3-9.4,3.3h-7.8V17.5h8.4c3.9,0,6.9,1,9,3
			C89.8,22.4,90.9,25.3,90.9,29z M84.1,29.3c0-2.2-0.4-3.9-1.3-4.9c-0.9-1.1-2.2-1.6-4-1.6h-1.9v13.5h1.5c2,0,3.4-0.6,4.4-1.7
			C83.7,33.4,84.1,31.6,84.1,29.3z"/>
		<path fill="#4E4E4E" d="M102.9,27.5h10.4v13c-2.8,1-5.9,1.5-9.3,1.5c-3.7,0-6.6-1.1-8.6-3.2c-2-2.2-3-5.2-3-9.2
			c0-3.9,1.1-6.9,3.3-9.1c2.2-2.2,5.3-3.3,9.4-3.3c1.5,0,3,0.1,4.3,0.4c1.3,0.3,2.5,0.6,3.5,1.1l-2.1,5.1c-1.7-0.9-3.7-1.3-5.7-1.3
			c-1.9,0-3.4,0.6-4.4,1.9c-1,1.2-1.6,3-1.6,5.3c0,2.3,0.5,4,1.4,5.2c0.9,1.2,2.3,1.8,4.1,1.8c1,0,1.9-0.1,2.7-0.3v-3.8h-4.3
			L102.9,27.5L102.9,27.5z"/>
	</g>
	<text transform="matrix(1 0 0 1 138.854 38.578)" fill="#4E4E4E" font-family="'Roboto-Medium'" font-size="26">Groups</text>
</g>
</svg>
